<svg width="28" height="28" viewBox="0 0 28 28" fill="none" xmlns="http://www.w3.org/2000/svg">
<line x1="10" y1="9" x2="10" y2="21" stroke="#B60B0B" stroke-width="2"/>
<line x1="14" y1="9" x2="14" y2="21" stroke="#B60B0B" stroke-width="2"/>
<line x1="18" y1="21" x2="18" y2="9" stroke="#B60B0B" stroke-width="2"/>
<line x1="3.5" y1="5.5" x2="24.5" y2="5.5" stroke="#B60B0B" stroke-width="3" stroke-linecap="round"/>
<path d="M19.4 5H8.6C8.58936 5 8.57872 5 8.5681 5C8.31572 4.99997 8.06993 4.99994 7.86177 5.01695C7.63318 5.03562 7.36344 5.07969 7.09202 5.21799C6.71569 5.40973 6.40973 5.71569 6.21799 6.09202C6.07969 6.36344 6.03562 6.63318 6.01695 6.86177C5.99994 7.06993 5.99997 7.31572 6 7.5681C6 7.57872 6 7.58936 6 7.6V21.4L6 21.4319C5.99997 21.6843 5.99994 21.9301 6.01695 22.1382C6.03562 22.3668 6.07969 22.6366 6.21799 22.908C6.40973 23.2843 6.71569 23.5903 7.09202 23.782C7.36344 23.9203 7.63318 23.9644 7.86177 23.9831C8.06992 24.0001 8.31571 24 8.56809 24L8.6 24H19.4L19.4319 24C19.6843 24 19.9301 24.0001 20.1382 23.9831C20.3668 23.9644 20.6366 23.9203 20.908 23.782C21.2843 23.5903 21.5903 23.2843 21.782 22.908C21.9203 22.6366 21.9644 22.3668 21.9831 22.1382C22.0001 21.9301 22 21.6843 22 21.4319L22 21.4V7.6L22 7.56812C22 7.31573 22.0001 7.06993 21.9831 6.86177C21.9644 6.63318 21.9203 6.36344 21.782 6.09202C21.5903 5.71569 21.2843 5.40973 20.908 5.21799C20.6366 5.07969 20.3668 5.03562 20.1382 5.01695C19.9301 4.99994 19.6843 4.99997 19.4319 5L19.4 5Z" stroke="#B60B0B" stroke-width="2" stroke-miterlimit="2.3662"/>
<path d="M10.5 3.5H17.5" stroke="#B60B0B" stroke-linecap="square"/>
</svg>
