<svg width="30" height="30" viewBox="0 0 30 30" fill="none" xmlns="http://www.w3.org/2000/svg">
<path fill-rule="evenodd" clip-rule="evenodd" d="M21.8407 17.5C20.7986 20.0957 18.1795 22 15 22C11.8205 22 9.20136 20.0957 8.15929 17.5H5C6.14622 21.8131 10.1888 25 15 25C19.8112 25 23.8538 21.8131 25 17.5H21.8407ZM8.15929 12.5C9.20136 9.90425 11.8205 8 15 8C18.1795 8 20.7986 9.90425 21.8407 12.5H25C23.8538 8.18693 19.8112 5 15 5C10.1888 5 6.14622 8.18693 5 12.5H8.15929Z" fill="black"/>
<path d="M5.82963 15.0353L11.1769 18.2612L2.81173 20.5027L5.82963 15.0353Z" fill="black"/>
<path d="M23.8996 14.9602L18.9706 11.6222L26.4992 9.60493L23.8996 14.9602Z" fill="black"/>
</svg>
